<?xml version="1.0" encoding="UTF-8"?>
<svg width="60px" height="60px" viewBox="0 0 60 60" version="1.1" xmlns="http://www.w3.org/2000/svg" xmlns:xlink="http://www.w3.org/1999/xlink">
    <!-- Generator: Sketch 50.2 (55047) - http://www.bohemiancoding.com/sketch -->
    <title>icon_linkedin</title>
    <desc>Created with Sketch.</desc>
    <defs></defs>
    <g id="icon_linkedin" stroke="none" stroke-width="1" fill="none" fill-rule="evenodd">
        <path d="M32,27 C32.3245856,26.2133072 33.8939917,25 36,25 C41.1039365,25 42,28.0283757 42,32 L42,42 L37,42 L37,33 C37.1933702,31.1790607 37.1571133,29.0019569 35,29 C32.9260098,29.0014443 32.1739493,30.0065208 32,31.3988036 L32,42 L27,42 L27,25 L32,25 L32,27 Z M24,42 L19,42 L19,25 L24,25 L24,42 Z M21.5,23 C19.8431458,23 18.5,21.6568542 18.5,20 C18.5,18.3431458 19.8431458,17 21.5,17 C23.1568542,17 24.5,18.3431458 24.5,20 C24.5,21.6568542 23.1568542,23 21.5,23 Z" fill="#160D31"></path>
    </g>
</svg>