<?xml version="1.0" encoding="UTF-8"?>
<svg width="60px" height="60px" viewBox="0 0 60 60" version="1.1" xmlns="http://www.w3.org/2000/svg" xmlns:xlink="http://www.w3.org/1999/xlink">
    <!-- Generator: Sketch 50.2 (55047) - http://www.bohemiancoding.com/sketch -->
    <title>icon_dribble</title>
    <desc>Created with Sketch.</desc>
    <defs></defs>
    <g id="icon_dribble" stroke="none" stroke-width="1" fill="none" fill-rule="evenodd">
        <path d="M30,18.75 C23.7967137,18.75 18.75,23.7967137 18.75,30 C18.75,36.2032863 23.7967137,41.25 30,41.25 C36.2032863,41.25 41.25,36.2032863 41.25,30 C41.25,23.7967137 36.2032863,18.75 30,18.75 Z M37.4381552,23.9379738 C38.776497,25.573125 39.5869506,27.6557812 39.6080897,29.9238357 C39.2912752,29.8568347 36.1143296,29.2124546 32.9169708,29.6145514 C32.6560433,28.9776109 32.4097681,28.4172883 32.0724496,27.7268196 C35.6253175,26.27625 37.2355645,24.2120111 37.4381552,23.9379738 Z M36.3699042,22.8267641 C36.1970716,23.0729486 34.7505847,25.0171573 31.3336694,26.2978881 C29.7590323,23.4048236 28.0137853,21.0281704 27.7481855,20.6725252 C30.7954839,19.9379637 34.0067238,20.7301361 36.3699042,22.8267641 Z M25.9146623,21.3184476 C26.1680141,21.6658821 27.8851361,24.0454839 29.4773286,26.8758115 C24.9824546,28.0694456 21.023498,28.052253 20.5937298,28.0465827 C21.2168347,25.0647429 23.2263206,22.5864768 25.9146623,21.3184476 Z M20.3907762,30.0146522 C20.3907762,29.9163962 20.3927268,29.8185937 20.3956754,29.7210181 C20.8160988,29.7296371 25.4726915,29.7896522 30.2714516,28.3535081 C30.5465323,28.891875 30.8093196,29.4383619 31.0505141,29.9842591 C27.5757611,30.9629637 24.4187298,33.7732863 22.8611038,36.4396724 C21.3263407,34.7361139 20.3907762,32.4827117 20.3907762,30.0146522 Z M24.1017792,37.5953831 C25.1055242,35.5434829 27.8296119,32.8947883 31.7036492,31.5731855 C33.0527419,35.0789667 33.6106603,38.017122 33.7535534,38.8601915 C30.6637954,40.1763054 26.9484375,39.8152167 24.1017792,37.5953831 Z M35.3690171,37.9804687 C35.2705343,37.3959224 34.7590675,34.5829234 33.5022429,31.1291734 C36.5134325,30.6471472 39.158997,31.4361895 39.4877419,31.5399345 C39.0594254,34.2136694 37.524753,36.5227772 35.3690171,37.9804687 Z" id="Shape" stroke="#160D31" fill="#160D31" fill-rule="nonzero"></path>
    </g>
</svg>