<?xml version="1.0" encoding="UTF-8"?>
<svg width="80px" height="80px" viewBox="0 0 80 80" version="1.1" xmlns="http://www.w3.org/2000/svg" xmlns:xlink="http://www.w3.org/1999/xlink">
    <title>icon_linkedin</title>
    <g id="icon_linkedin" stroke="none" stroke-width="1" fill="none" fill-rule="evenodd">
        <path d="M10,10 L10,70 L70,70 L70,10 L10,10 Z M30.9297934,55.8771341 L23.8082813,55.8771341 L23.8082813,34.451622 L30.9297934,34.451622 L30.9297934,55.8771341 Z M27.3690374,31.5273143 L27.3219868,31.5273143 C24.9330637,31.5273143 23.3846154,29.8814945 23.3846154,27.8243516 C23.3846154,25.7220571 24.9783209,24.1228659 27.4156659,24.1228659 C29.8535385,24.1228659 31.3516659,25.7220571 31.3982945,27.8243516 C31.3982945,29.8814945 29.8535385,31.5273143 27.3690374,31.5273143 Z M56.6153846,55.8772396 L49.4919736,55.8772396 L49.4919736,44.4144176 C49.4919736,41.535367 48.4627692,39.5701099 45.884589,39.5701099 C43.9156396,39.5701099 42.7456,40.8933275 42.2301538,42.1750857 C42.0427956,42.6329319 41.9938462,43.2693802 41.9938462,43.9114198 L41.9938462,55.8772396 L34.8690637,55.8772396 C34.8690637,55.8772396 34.9645363,36.4617143 34.8690637,34.4517275 L41.9938462,34.4517275 L41.9938462,37.4877538 C42.9404484,36.0311912 44.6297319,33.9487297 48.4138198,33.9487297 C53.1016791,33.9487297 56.6153846,37.0101802 56.6153846,43.5907165 L56.6153846,55.8772396 Z" id="Shape" fill="#000000" fill-rule="nonzero"></path>
    </g>
</svg>