<?xml version="1.0" encoding="UTF-8"?>
<svg width="60px" height="60px" viewBox="0 0 60 60" version="1.1" xmlns="http://www.w3.org/2000/svg" xmlns:xlink="http://www.w3.org/1999/xlink">
    <!-- Generator: Sketch 50.2 (55047) - http://www.bohemiancoding.com/sketch -->
    <title>icon_expand</title>
    <desc>Created with Sketch.</desc>
    <defs></defs>
    <g id="icon_expand" stroke="none" stroke-width="1" fill="none" fill-rule="evenodd">
        <path d="M33.5497817,32.2053756 C33.6908152,32.1825698 33.8343129,32.1784641 33.9762558,32.1930146 L34.1175316,32.2137821 L34.2001726,32.2320371 L34.2872915,32.2566154 L34.3843938,32.2896838 L34.5326814,32.3538771 L34.6259762,32.4047574 L34.7915633,32.5147504 L34.900012,32.6044711 L39.6295595,37.3305595 L39.6647911,35.5622985 C39.6800075,34.780939 40.2449949,34.1368115 40.9917509,33.9968037 L41.1338079,33.9765494 L41.2795861,33.9686479 L41.3214912,33.9688918 C42.1516857,33.9850592 42.8269582,34.6218665 42.9071678,35.4440606 L42.9150558,35.5909895 L42.8084856,41.1677625 C42.8088897,41.2882578 42.7958361,41.4085473 42.7716202,41.5177907 C42.7235769,41.7548295 42.6242524,41.972469 42.4763653,42.1661559 L42.3563871,42.3068589 L42.2953522,42.3669616 C42.0816348,42.5702698 41.8159282,42.7108648 41.5220556,42.7715296 C41.4439309,42.7880309 41.36516,42.7991319 41.2895499,42.8045553 L41.1789814,42.8083973 L35.5761741,42.915119 C34.815251,42.9070929 34.1698726,42.3728241 34.0051988,41.6217167 L33.9800448,41.4784186 L33.968802,41.313995 L33.9686707,41.2720734 C33.9766969,40.5111503 34.5109657,39.8657719 35.262073,39.7010981 L35.4053712,39.6759442 L35.5623122,39.6647909 L37.3315595,39.6295595 L32.5703361,34.8608816 L32.4897002,34.7578602 L32.4206216,34.6534859 L32.3537856,34.5316673 L32.2920156,34.391873 L32.2797741,34.358923 C32.2516406,34.2804421 32.2295926,34.1997455 32.2138235,34.117741 C32.2025618,34.0591221 32.1945338,33.9999833 32.1897675,33.9327567 L32.1850679,33.8249047 L32.1917684,33.6591404 L32.2089648,33.5300482 L32.2394316,33.3927987 L32.3009744,33.2062259 L32.3600207,33.0745459 C32.399017,32.9976814 32.4441897,32.9238778 32.4952287,32.8538239 C32.5283853,32.8083076 32.5639881,32.7644202 32.607711,32.7168508 L32.6800945,32.6420712 L32.8015015,32.5351183 L32.8703369,32.4836974 L32.9855438,32.409335 L33.1332819,32.3319939 L33.2543557,32.2825992 L33.4092665,32.2347859 L33.5497817,32.2053756 Z M26.0637861,32.1850413 L26.2559786,32.1917684 L26.3850708,32.2089648 L26.5223203,32.2394316 L26.7088931,32.3009744 L26.8405731,32.3600207 C26.9174377,32.399017 26.9912413,32.4441897 27.0612951,32.4952287 C27.1068114,32.5283853 27.1506988,32.5639881 27.1982682,32.607711 L27.2730478,32.6800945 L27.3800007,32.8015015 L27.4314217,32.8703369 L27.505784,32.9855438 L27.5831251,33.1332819 L27.6325198,33.2543557 L27.6803331,33.4092665 L27.7097434,33.5497817 C27.7401511,33.7378264 27.7373142,33.9302518 27.7013177,34.1176315 C27.6907869,34.1723896 27.6774763,34.2265073 27.6585029,34.2872952 L27.6254353,34.3843938 L27.561242,34.5326814 L27.5103617,34.6259762 L27.4003687,34.7915633 L27.310648,34.900012 L22.5835595,39.6295595 L24.3528205,39.6647911 C25.13418,39.6800075 25.7783076,40.2449949 25.9183154,40.9917509 L25.9385696,41.1338079 L25.9464711,41.2795861 L25.9462272,41.3214912 C25.9300598,42.1516857 25.2932525,42.8269582 24.4710584,42.9071678 L24.3241295,42.9150558 L18.7473565,42.8084856 C18.6268612,42.8088897 18.5065717,42.7958361 18.3973283,42.7716202 C18.1602895,42.7235769 17.94265,42.6242524 17.7489631,42.4763653 L17.6082601,42.3563871 L17.5481575,42.2953522 C17.3448492,42.0816348 17.2042542,41.8159282 17.1435894,41.5220556 C17.1270882,41.4439309 17.1159871,41.36516 17.1105638,41.2895499 L17.1067217,41.1789814 L17,35.5761741 C17.0080262,34.815251 17.5422949,34.1698726 18.2934023,34.0051988 L18.4367004,33.9800448 L18.601124,33.968802 L18.6430456,33.9686707 C19.4039687,33.9766969 20.0493471,34.5109657 20.2140209,35.262073 L20.2391749,35.4053712 L20.2503282,35.5623122 L20.2845595,37.3315595 L25.0542374,32.5703361 L25.1572589,32.4897002 L25.2616332,32.4206216 L25.3834517,32.3537856 L25.5232461,32.2920156 L25.556196,32.2797741 C25.6346769,32.2516406 25.7153735,32.2295926 25.797378,32.2138235 L25.9300371,32.19395 L26.0637861,32.1850413 Z M35.5909895,17.0000632 L41.1677625,17.1066334 C41.2882578,17.1062293 41.4085473,17.1192829 41.5177907,17.1434988 C41.7548295,17.1915421 41.972469,17.2908666 42.1661559,17.4387537 L42.3068589,17.558732 L42.3669616,17.6197668 C42.5702698,17.8334842 42.7108648,18.0991908 42.7715296,18.3930634 C42.7880309,18.4711881 42.7991319,18.5499591 42.8045553,18.6255691 L42.8083973,18.7361377 L42.915119,24.338945 C42.9070929,25.099868 42.3728241,25.7452465 41.6217167,25.9099203 L41.4784186,25.9350742 L41.313995,25.946317 L41.2720734,25.9464483 C40.5111503,25.9384221 39.8657719,25.4041534 39.7010981,24.653046 L39.6759442,24.5097478 L39.6647909,24.3528068 L39.6295595,22.5835595 L34.9186743,27.2935902 L34.8608816,27.3447829 L34.7578602,27.4254188 L34.6534859,27.4944974 L34.5316673,27.5613334 L34.391873,27.6231034 L34.358923,27.635345 C34.2804421,27.6634784 34.1997455,27.6855264 34.117741,27.7012956 C34.0591221,27.7125572 33.9999833,27.7205853 33.9327567,27.7253515 L33.8249047,27.7300511 L33.6591404,27.7233506 L33.5300482,27.7061542 L33.3927987,27.6756874 L33.2062259,27.6141446 L33.0745459,27.5550984 C32.9976814,27.5161021 32.9238778,27.4709293 32.8538239,27.4198904 C32.8083076,27.3867337 32.7644202,27.3511309 32.7168508,27.307408 L32.6420712,27.2350245 L32.5351183,27.1136175 L32.4836974,27.0447821 L32.409335,26.9295752 L32.3319939,26.7818371 L32.2825992,26.6607633 L32.2347859,26.5058526 L32.2053756,26.3653373 C32.1749679,26.1772926 32.1778048,25.9848672 32.2138013,25.7974875 C32.2243321,25.7427294 32.2376427,25.6886117 32.2566161,25.6278238 L32.2896838,25.5307253 L32.3538771,25.3824376 L32.4047574,25.2891428 L32.5195186,25.1177629 L32.6382036,24.9788581 L37.3305595,20.2845595 L35.5622985,20.2503279 C34.780939,20.2351115 34.1368115,19.6701241 33.9968037,18.9233681 L33.9765494,18.7813111 L33.9686479,18.6355329 L33.9688918,18.5936278 C33.9850592,17.7634333 34.6218665,17.0881608 35.4315797,17.0078979 L35.5909895,17.0000632 Z M24.338945,17 C25.099868,17.0080262 25.7452465,17.5422949 25.9099203,18.2934023 L25.9350742,18.4367004 L25.946317,18.601124 L25.9464483,18.6430456 C25.9384221,19.4039687 25.4041534,20.0493471 24.653046,20.2140209 L24.5097478,20.2391749 L24.3528068,20.2503282 L22.5835595,20.2845595 L27.2935902,24.9964448 L27.3447829,25.0542374 L27.4254188,25.1572589 L27.4944974,25.2616332 L27.5613334,25.3834517 L27.6231034,25.5232461 L27.635345,25.556196 C27.6634784,25.6346769 27.6855264,25.7153735 27.7012956,25.797378 C27.7125572,25.8559969 27.7205853,25.9151357 27.7253515,25.9823624 L27.7300511,26.0902143 L27.7233506,26.2559786 L27.7061542,26.3850708 L27.6756874,26.5223203 L27.6141446,26.7088931 L27.5550984,26.8405731 C27.5161021,26.9174377 27.4709293,26.9912413 27.4198904,27.0612951 C27.3867337,27.1068114 27.3511309,27.1506988 27.307408,27.1982682 L27.2350245,27.2730478 L27.1136175,27.3800007 L27.0447821,27.4314217 L26.9295752,27.505784 L26.7818371,27.5831251 L26.6607633,27.6325198 L26.5058526,27.6803331 L26.3653373,27.7097434 C26.1772926,27.7401511 25.9848672,27.7373142 25.7974875,27.7013177 C25.7427294,27.6907869 25.6886117,27.6774763 25.6278238,27.6585029 L25.5307253,27.6254353 L25.3824376,27.561242 L25.2891428,27.5103617 L25.1177629,27.3956004 L24.9788581,27.2769155 L20.2845595,22.5835595 L20.2503279,24.3528205 C20.2351115,25.13418 19.6701241,25.7783076 18.9233681,25.9183154 L18.7813111,25.9385696 L18.6355329,25.9464711 L18.5936278,25.9462272 C17.7634333,25.9300598 17.0881608,25.2932525 17.0079512,24.4710584 L17.0000632,24.3241295 L17.1066334,18.7473565 C17.1062293,18.6268612 17.1192829,18.5065717 17.1434988,18.3973283 C17.1915421,18.1602895 17.2908666,17.94265 17.4387537,17.7489631 L17.558732,17.6082601 L17.6197668,17.5481575 C17.8334842,17.3448492 18.0991908,17.2042542 18.3930634,17.1435894 C18.4711881,17.1270882 18.5499591,17.1159871 18.6255691,17.1105638 L18.7361377,17.1067217 L24.338945,17 Z" id="Shape" fill="#160D31" fill-rule="nonzero"></path>
    </g>
</svg>