<?xml version="1.0" encoding="UTF-8"?>
<svg width="80px" height="80px" viewBox="0 0 80 80" version="1.1" xmlns="http://www.w3.org/2000/svg" xmlns:xlink="http://www.w3.org/1999/xlink">
    <title>icon_email</title>
    <g id="icon_email" stroke="none" stroke-width="1" fill="none" fill-rule="evenodd">
        <path d="M70,10 L70,70 L10,70 L10,10 L70,10 Z M54.1294643,26 L25.8705357,26 L25.6627465,26.0059975 C23.6643318,26.1216953 22.1004438,27.8966708 22.0046524,30.0547104 L22,30.2647059 L22,50.7352941 L22.0053031,50.9595837 C22.1076382,53.1193747 23.679076,54.8864066 25.6759925,54.994737 L25.8705357,55 L54.1294643,55 L54.3367823,54.9940242 C56.3309364,54.8787395 57.8992609,53.1098746 57.9953338,50.945902 L58,50.7352941 L58,30.2647059 L57.994718,30.0408277 C57.8927845,27.8847563 56.327287,26.1138511 54.3246028,26.0052751 L54.1294643,26 Z M54.1428571,33.9090909 L54.1428571,49.0681818 L54.1342072,49.2219097 C54.0648891,49.833787 53.586876,50.3178621 52.9873646,50.379686 L52.8571429,50.3863636 L27.1428571,50.3863636 L26.9929157,50.3774953 C26.3961093,50.3064267 25.9239572,49.8163425 25.863656,49.201692 L25.8571429,49.0681818 L25.8571429,33.9090909 L35.0619102,45.2310839 L35.2670305,45.4715143 C37.5724411,48.0470389 41.4690227,48.3359747 44.1160417,46.0738909 C44.3397526,45.8827125 44.5504471,45.6762429 44.7467015,45.4559417 L44.9380898,45.2310839 L54.1428571,33.9090909 Z M51.5714286,29.9545455 L41.4595736,42.3762261 C41.0566915,42.8736699 40.5430304,43.1363636 40.0005601,43.1363636 C39.5121869,43.1363636 39.0472934,42.9233793 38.6653163,42.5179613 L38.5411431,42.375723 L28.4285714,29.9545455 L51.5714286,29.9545455 Z" id="Shape" fill="#000000" fill-rule="nonzero"></path>
    </g>
</svg>