<?xml version="1.0" encoding="UTF-8"?>
<svg width="80px" height="80px" viewBox="0 0 80 80" version="1.1" xmlns="http://www.w3.org/2000/svg" xmlns:xlink="http://www.w3.org/1999/xlink">
    <title>icon_instagram</title>
    <g id="icon_instagram" stroke="none" stroke-width="1" fill="none" fill-rule="evenodd">
        <path d="M39.9994075,34.6305707 C37.0394971,34.6305707 34.6293858,37.0394971 34.6293858,39.9994075 C34.6293858,42.9605029 37.0394971,45.3706142 39.9994075,45.3706142 C42.9605029,45.3706142 45.3694293,42.9605029 45.3694293,39.9994075 C45.3694293,37.0394971 42.9605029,34.6305707 39.9994075,34.6305707 Z M39.9994075,34.6305707 C37.0394971,34.6305707 34.6293858,37.0394971 34.6293858,39.9994075 C34.6293858,42.9605029 37.0394971,45.3706142 39.9994075,45.3706142 C42.9605029,45.3706142 45.3694293,42.9605029 45.3694293,39.9994075 C45.3694293,37.0394971 42.9605029,34.6305707 39.9994075,34.6305707 Z M48.945494,25.8752551 L31.054506,25.8752551 C28.1988678,25.8752551 25.8752551,28.1988678 25.8752551,31.054506 L25.8752551,48.945494 C25.8752551,51.8011322 28.1988678,54.1247449 31.054506,54.1247449 L48.945494,54.1247449 C51.8011322,54.1247449 54.1247449,51.8011322 54.1247449,48.945494 L54.1247449,31.054506 C54.1247449,28.1988678 51.8011322,25.8752551 48.945494,25.8752551 Z M39.9994075,49.2997828 C34.8722928,49.2997828 30.7002172,45.1277072 30.7002172,39.9994075 C30.7002172,34.8722928 34.8722928,30.7002172 39.9994075,30.7002172 C45.1277072,30.7002172 49.2997828,34.8722928 49.2997828,39.9994075 C49.2997828,45.1277072 45.1277072,49.2997828 39.9994075,49.2997828 Z M49.5983806,32.6233296 C48.3850306,32.6233296 47.3979988,31.6362978 47.3979988,30.4229478 C47.3979988,29.2095978 48.3850306,28.222566 49.5983806,28.222566 C50.8117306,28.222566 51.7987624,29.2095978 51.7987624,30.4229478 C51.7987624,31.6362978 50.8117306,32.6233296 49.5983806,32.6233296 Z M39.9994075,34.6305707 C37.0394971,34.6305707 34.6293858,37.0394971 34.6293858,39.9994075 C34.6293858,42.9605029 37.0394971,45.3706142 39.9994075,45.3706142 C42.9605029,45.3706142 45.3694293,42.9605029 45.3694293,39.9994075 C45.3694293,37.0394971 42.9605029,34.6305707 39.9994075,34.6305707 Z M48.945494,25.8752551 L31.054506,25.8752551 C28.1988678,25.8752551 25.8752551,28.1988678 25.8752551,31.054506 L25.8752551,48.945494 C25.8752551,51.8011322 28.1988678,54.1247449 31.054506,54.1247449 L48.945494,54.1247449 C51.8011322,54.1247449 54.1247449,51.8011322 54.1247449,48.945494 L54.1247449,31.054506 C54.1247449,28.1988678 51.8011322,25.8752551 48.945494,25.8752551 Z M39.9994075,49.2997828 C34.8722928,49.2997828 30.7002172,45.1277072 30.7002172,39.9994075 C30.7002172,34.8722928 34.8722928,30.7002172 39.9994075,30.7002172 C45.1277072,30.7002172 49.2997828,34.8722928 49.2997828,39.9994075 C49.2997828,45.1277072 45.1277072,49.2997828 39.9994075,49.2997828 Z M49.5983806,32.6233296 C48.3850306,32.6233296 47.3979988,31.6362978 47.3979988,30.4229478 C47.3979988,29.2095978 48.3850306,28.222566 49.5983806,28.222566 C50.8117306,28.222566 51.7987624,29.2095978 51.7987624,30.4229478 C51.7987624,31.6362978 50.8117306,32.6233296 49.5983806,32.6233296 Z M39.9994075,34.6305707 C37.0394971,34.6305707 34.6293858,37.0394971 34.6293858,39.9994075 C34.6293858,42.9605029 37.0394971,45.3706142 39.9994075,45.3706142 C42.9605029,45.3706142 45.3694293,42.9605029 45.3694293,39.9994075 C45.3694293,37.0394971 42.9605029,34.6305707 39.9994075,34.6305707 Z M10,10 L10,70 L70,70 L70,10 L10,10 Z M58.0539135,48.945494 C58.0539135,53.9683365 53.9683365,58.0539135 48.945494,58.0539135 L31.054506,58.0539135 C26.0316635,58.0539135 21.9460865,53.9683365 21.9460865,48.945494 L21.9460865,31.054506 C21.9460865,26.0316635 26.0316635,21.9460865 31.054506,21.9460865 L48.945494,21.9460865 C53.9683365,21.9460865 58.0539135,26.0316635 58.0539135,31.054506 L58.0539135,48.945494 Z M48.945494,25.8752551 L31.054506,25.8752551 C28.1988678,25.8752551 25.8752551,28.1988678 25.8752551,31.054506 L25.8752551,48.945494 C25.8752551,51.8011322 28.1988678,54.1247449 31.054506,54.1247449 L48.945494,54.1247449 C51.8011322,54.1247449 54.1247449,51.8011322 54.1247449,48.945494 L54.1247449,31.054506 C54.1247449,28.1988678 51.8011322,25.8752551 48.945494,25.8752551 Z M39.9994075,49.2997828 C34.8722928,49.2997828 30.7002172,45.1277072 30.7002172,39.9994075 C30.7002172,34.8722928 34.8722928,30.7002172 39.9994075,30.7002172 C45.1277072,30.7002172 49.2997828,34.8722928 49.2997828,39.9994075 C49.2997828,45.1277072 45.1277072,49.2997828 39.9994075,49.2997828 Z M49.5983806,32.6233296 C48.3850306,32.6233296 47.3979988,31.6362978 47.3979988,30.4229478 C47.3979988,29.2095978 48.3850306,28.222566 49.5983806,28.222566 C50.8117306,28.222566 51.7987624,29.2095978 51.7987624,30.4229478 C51.7987624,31.6362978 50.8117306,32.6233296 49.5983806,32.6233296 Z M39.9994075,34.6305707 C37.0394971,34.6305707 34.6293858,37.0394971 34.6293858,39.9994075 C34.6293858,42.9605029 37.0394971,45.3706142 39.9994075,45.3706142 C42.9605029,45.3706142 45.3694293,42.9605029 45.3694293,39.9994075 C45.3694293,37.0394971 42.9605029,34.6305707 39.9994075,34.6305707 Z M39.9994075,34.6305707 C37.0394971,34.6305707 34.6293858,37.0394971 34.6293858,39.9994075 C34.6293858,42.9605029 37.0394971,45.3706142 39.9994075,45.3706142 C42.9605029,45.3706142 45.3694293,42.9605029 45.3694293,39.9994075 C45.3694293,37.0394971 42.9605029,34.6305707 39.9994075,34.6305707 Z M39.9994075,34.6305707 C37.0394971,34.6305707 34.6293858,37.0394971 34.6293858,39.9994075 C34.6293858,42.9605029 37.0394971,45.3706142 39.9994075,45.3706142 C42.9605029,45.3706142 45.3694293,42.9605029 45.3694293,39.9994075 C45.3694293,37.0394971 42.9605029,34.6305707 39.9994075,34.6305707 Z M48.945494,25.8752551 L31.054506,25.8752551 C28.1988678,25.8752551 25.8752551,28.1988678 25.8752551,31.054506 L25.8752551,48.945494 C25.8752551,51.8011322 28.1988678,54.1247449 31.054506,54.1247449 L48.945494,54.1247449 C51.8011322,54.1247449 54.1247449,51.8011322 54.1247449,48.945494 L54.1247449,31.054506 C54.1247449,28.1988678 51.8011322,25.8752551 48.945494,25.8752551 Z M39.9994075,49.2997828 C34.8722928,49.2997828 30.7002172,45.1277072 30.7002172,39.9994075 C30.7002172,34.8722928 34.8722928,30.7002172 39.9994075,30.7002172 C45.1277072,30.7002172 49.2997828,34.8722928 49.2997828,39.9994075 C49.2997828,45.1277072 45.1277072,49.2997828 39.9994075,49.2997828 Z M49.5983806,32.6233296 C48.3850306,32.6233296 47.3979988,31.6362978 47.3979988,30.4229478 C47.3979988,29.2095978 48.3850306,28.222566 49.5983806,28.222566 C50.8117306,28.222566 51.7987624,29.2095978 51.7987624,30.4229478 C51.7987624,31.6362978 50.8117306,32.6233296 49.5983806,32.6233296 Z M39.9994075,34.6305707 C37.0394971,34.6305707 34.6293858,37.0394971 34.6293858,39.9994075 C34.6293858,42.9605029 37.0394971,45.3706142 39.9994075,45.3706142 C42.9605029,45.3706142 45.3694293,42.9605029 45.3694293,39.9994075 C45.3694293,37.0394971 42.9605029,34.6305707 39.9994075,34.6305707 Z M39.9994075,34.6305707 C37.0394971,34.6305707 34.6293858,37.0394971 34.6293858,39.9994075 C34.6293858,42.9605029 37.0394971,45.3706142 39.9994075,45.3706142 C42.9605029,45.3706142 45.3694293,42.9605029 45.3694293,39.9994075 C45.3694293,37.0394971 42.9605029,34.6305707 39.9994075,34.6305707 Z M39.9994075,34.6305707 C37.0394971,34.6305707 34.6293858,37.0394971 34.6293858,39.9994075 C34.6293858,42.9605029 37.0394971,45.3706142 39.9994075,45.3706142 C42.9605029,45.3706142 45.3694293,42.9605029 45.3694293,39.9994075 C45.3694293,37.0394971 42.9605029,34.6305707 39.9994075,34.6305707 Z M48.945494,25.8752551 L31.054506,25.8752551 C28.1988678,25.8752551 25.8752551,28.1988678 25.8752551,31.054506 L25.8752551,48.945494 C25.8752551,51.8011322 28.1988678,54.1247449 31.054506,54.1247449 L48.945494,54.1247449 C51.8011322,54.1247449 54.1247449,51.8011322 54.1247449,48.945494 L54.1247449,31.054506 C54.1247449,28.1988678 51.8011322,25.8752551 48.945494,25.8752551 Z M39.9994075,49.2997828 C34.8722928,49.2997828 30.7002172,45.1277072 30.7002172,39.9994075 C30.7002172,34.8722928 34.8722928,30.7002172 39.9994075,30.7002172 C45.1277072,30.7002172 49.2997828,34.8722928 49.2997828,39.9994075 C49.2997828,45.1277072 45.1277072,49.2997828 39.9994075,49.2997828 Z M49.5983806,32.6233296 C48.3850306,32.6233296 47.3979988,31.6362978 47.3979988,30.4229478 C47.3979988,29.2095978 48.3850306,28.222566 49.5983806,28.222566 C50.8117306,28.222566 51.7987624,29.2095978 51.7987624,30.4229478 C51.7987624,31.6362978 50.8117306,32.6233296 49.5983806,32.6233296 Z M39.9994075,34.6305707 C37.0394971,34.6305707 34.6293858,37.0394971 34.6293858,39.9994075 C34.6293858,42.9605029 37.0394971,45.3706142 39.9994075,45.3706142 C42.9605029,45.3706142 45.3694293,42.9605029 45.3694293,39.9994075 C45.3694293,37.0394971 42.9605029,34.6305707 39.9994075,34.6305707 Z" id="Shape" fill="#000000" fill-rule="nonzero"></path>
    </g>
</svg>