<?xml version="1.0" encoding="UTF-8"?>
<svg width="60px" height="60px" viewBox="0 0 60 60" version="1.1" xmlns="http://www.w3.org/2000/svg" xmlns:xlink="http://www.w3.org/1999/xlink">
    <!-- Generator: Sketch 50.2 (55047) - http://www.bohemiancoding.com/sketch -->
    <title>icon_behance</title>
    <desc>Created with Sketch.</desc>
    <defs></defs>
    <g id="icon_behance" stroke="none" stroke-width="1" fill="none" fill-rule="evenodd">
        <path d="M28.5763889,30.3413182 C30.0946181,29.6046801 30.8871528,28.4900305 30.8871528,26.755054 C30.8871528,23.3335641 28.3758681,22.5 25.4778646,22.5 L17.5,22.5 L17.5,39.6752977 L25.7022569,39.6752977 C28.7769097,39.6752977 31.6653646,38.1777901 31.6653646,34.688452 C31.6653646,32.5318471 30.6579861,30.9374135 28.5763889,30.3413182 Z M21.219184,25.4320133 L24.7092014,25.4320133 C26.0507812,25.4320133 27.2586806,25.8148712 27.2586806,27.394766 C27.2586806,28.8535032 26.3181424,29.4399058 24.9908854,29.4399058 L21.219184,29.4399058 L21.219184,25.4320133 Z M25.1961806,36.7578233 L21.219184,36.7578233 L21.219184,32.0278316 L25.2725694,32.0278316 C26.9101562,32.0278316 27.9461806,32.7208529 27.9461806,34.4800609 C27.9461806,36.2150374 26.7096354,36.7578233 25.1961806,36.7578233 Z M42.312066,25.0927721 L35.4513889,25.0927721 L35.4513889,23.4014124 L42.312066,23.4014124 L42.312066,25.0927721 Z M45,33.6368042 C45,29.9584603 42.8802083,26.8907505 39.0368924,26.8907505 C35.3033854,26.8907505 32.7682292,29.7403766 32.7682292,33.4720299 C32.7682292,37.344226 35.1697049,40 39.0368924,40 C41.9635417,40 43.858941,38.6624204 44.7708333,35.8176405 L41.8012153,35.8176405 C41.4813368,36.8789809 40.1636285,37.441152 39.1419271,37.441152 C37.1701389,37.441152 36.1341146,36.2683467 36.1341146,34.2765162 L44.9713542,34.2765162 C44.9856771,34.0729715 45,33.8548878 45,33.6368042 Z M36.1388889,32.1247577 C36.2486979,30.4915536 37.3181424,29.4689837 38.9318576,29.4689837 C40.6219618,29.4689837 41.4717882,30.4770147 41.6150174,32.1247577 L36.1388889,32.1247577 Z" id="Shape" fill="#160D31" fill-rule="nonzero"></path>
    </g>
</svg>