<?xml version="1.0" encoding="UTF-8"?>
<svg width="80px" height="80px" viewBox="0 0 80 80" version="1.1" xmlns="http://www.w3.org/2000/svg" xmlns:xlink="http://www.w3.org/1999/xlink">
    <title>icon_behance</title>
    <g id="icon_behance" stroke="none" stroke-width="1" fill="none" fill-rule="evenodd">
        <path d="M70,10 L70,70 L10,70 L10,10 L70,10 Z M51.7614505,33.5122198 C50.3438681,33.5122198 49.063956,33.7642198 47.9032527,34.2650549 C46.7425495,34.7676044 45.7458901,35.455956 44.9054945,36.3281319 C44.0669451,37.1955604 43.4292308,38.2296703 42.9678242,39.4282198 C42.5159121,40.6225495 42.2847473,41.914989 42.2847473,43.2982857 C42.2847473,44.7290549 42.5074725,46.0493187 42.948967,47.2418022 C43.3952088,48.4408791 44.0214505,49.4612747 44.8278242,50.3248791 C45.6549011,51.1842637 46.6383736,51.8436044 47.8151648,52.3141099 C48.9928791,52.7788132 50.3041758,53.0147253 51.7614505,53.0147253 C53.8523516,53.0147253 55.6470769,52.5357802 57.1184615,51.5745934 C58.524293,50.6706667 59.5759613,49.2023842 60.29424,47.165969 L60.4175385,46.8007033 L55.9425934,46.8007033 C55.7691868,47.3734066 55.3210989,47.9248791 54.5848791,48.4407473 C53.8420659,48.9571429 52.9561758,49.2162637 51.931033,49.2162637 C50.5060659,49.2162637 49.406022,48.8425495 48.6452747,48.0992088 C47.9292308,47.4024505 47.4498541,46.1418401 47.392729,44.7819906 L47.386989,44.5088352 L60.7369231,44.5088352 C60.8326593,43.0734505 60.7160879,41.7024176 60.3835165,40.3900659 C60.048044,39.0754725 59.5117363,37.9034286 58.7575824,36.8786813 C58.0034286,35.8520879 57.0435604,35.032 55.8725714,34.426989 C54.6976264,33.8134066 53.3265934,33.5122198 51.7614505,33.5122198 Z M31.2770549,26.9851429 L19.2307692,26.9851429 L19.2307692,52.5357802 L31.6151648,52.5357802 C32.7597802,52.5357802 33.8777582,52.3917802 34.9540659,52.1056264 C36.0427692,51.8194725 37.0149011,51.379956 37.860967,50.7806154 C38.7005714,50.1865495 39.3818022,49.4168352 39.881978,48.4668571 C40.3775385,47.529011 40.6258462,46.4132747 40.6258462,45.1176703 C40.6258462,43.5191648 40.2459341,42.1559121 39.4698901,41.0164396 C38.6978022,39.8847473 37.5332747,39.0887912 35.9604835,38.6368791 C37.1155165,38.0906813 37.9795165,37.387033 38.5679121,36.5296264 C39.1515604,35.6707692 39.4433846,34.5964396 39.4433846,33.3101978 C39.4433846,32.1211429 39.2480879,31.1153846 38.8586813,30.3123077 C38.4599121,29.496967 37.9027692,28.8498901 37.1912088,28.3632967 C36.4683077,27.8768352 35.6127473,27.521978 34.6102857,27.3092747 C33.7281703,27.1180824 32.7735646,27.0133132 31.7298602,26.9901083 L31.2770549,26.9851429 Z M30.9728352,41.1481758 C32.1837802,41.1481758 33.1681758,41.4266813 33.9062418,41.9865934 C34.6433846,42.5546813 35.0138022,43.4893626 35.0138022,44.8064615 C35.0138022,45.4781978 34.9048791,46.0344176 34.6775385,46.4625934 C34.450989,46.8945934 34.1393846,47.2342857 33.7631648,47.4820659 C33.3869451,47.7397363 32.9407033,47.9140659 32.4376264,48.024044 C32.041178,48.1127648 31.6248123,48.1619886 31.189812,48.1781292 L30.8600879,48.1841319 L24.8569231,48.1841319 L24.8569231,41.1481758 L30.9728352,41.1481758 Z M51.6088791,37.3491868 C52.8567473,37.3491868 53.880044,37.7106374 54.4837363,38.3792088 C55.0434252,39.0009772 55.4643483,39.8649959 55.6212143,41.0133744 L55.6548571,41.3064176 L47.3871209,41.3064176 C47.4108571,40.9453626 47.4885275,40.536967 47.6192088,40.0869011 C47.748967,39.624967 47.9726154,39.192967 48.3004396,38.7836484 C48.6301099,38.3809231 49.0611868,38.038989 49.5870769,37.7641758 C50.1250989,37.4856703 50.796967,37.3491868 51.6088791,37.3491868 Z M30.1199121,31.3375824 C30.6174505,31.3375824 31.1035165,31.3730549 31.5667692,31.4636484 C32.0385934,31.5446154 32.4451429,31.6948132 32.8051429,31.9122637 C33.168044,32.1211429 33.4551209,32.4195604 33.672044,32.8009231 C33.8815824,33.1821538 33.9857582,33.6734945 33.9857582,34.2680879 C33.9857582,35.3387253 33.672044,36.1193846 33.024967,36.5917363 C32.4307213,37.02798 31.69469,37.2630431 30.8167742,37.3021766 L30.5491429,37.308044 L24.8566593,37.308044 L24.8566593,31.3375824 L30.1199121,31.3375824 Z M56.7045275,28.6991648 L46.3476044,28.6991648 L46.3476044,31.2204835 L56.7045275,31.2204835 L56.7045275,28.6991648 Z" id="Shape" fill="#000000" fill-rule="nonzero"></path>
    </g>
</svg>